<svg width="1000" height="600" xmlns="http://www.w3.org/2000/svg"><rect x="10" y="355.33783783784" width="30" height="224.66216216216" fill="brown" /><text x="25" y="595" font-size="12" text-anchor="middle" fill="gold">1995</text><text x="25" y="350.33783783784" font-size="12" text-anchor="middle" fill="gold">266</text><rect x="60" y="272.56756756757" width="30" height="307.43243243243" fill="brown" /><text x="75" y="595" font-size="12" text-anchor="middle" fill="gold">1996</text><text x="75" y="267.56756756757" font-size="12" text-anchor="middle" fill="gold">364</text><rect x="110" y="292.83783783784" width="30" height="287.16216216216" fill="brown" /><text x="125" y="595" font-size="12" text-anchor="middle" fill="gold">1997</text><text x="125" y="287.83783783784" font-size="12" text-anchor="middle" fill="gold">340</text><rect x="160" y="272.56756756757" width="30" height="307.43243243243" fill="brown" /><text x="175" y="595" font-size="12" text-anchor="middle" fill="gold">1998</text><text x="175" y="267.56756756757" font-size="12" text-anchor="middle" fill="gold">364</text><rect x="210" y="277.63513513514" width="30" height="302.36486486486" fill="brown" /><text x="225" y="595" font-size="12" text-anchor="middle" fill="gold">1999</text><text x="225" y="272.63513513514" font-size="12" text-anchor="middle" fill="gold">358</text><rect x="260" y="253.98648648649" width="30" height="326.01351351351" fill="brown" /><text x="275" y="595" font-size="12" text-anchor="middle" fill="gold">2000</text><text x="275" y="248.98648648649" font-size="12" text-anchor="middle" fill="gold">386</text><rect x="310" y="255.67567567568" width="30" height="324.32432432432" fill="brown" /><text x="325" y="595" font-size="12" text-anchor="middle" fill="gold">2001</text><text x="325" y="250.67567567568" font-size="12" text-anchor="middle" fill="gold">384</text><rect x="360" y="252.2972972973" width="30" height="327.7027027027" fill="brown" /><text x="375" y="595" font-size="12" text-anchor="middle" fill="gold">2002</text><text x="375" y="247.2972972973" font-size="12" text-anchor="middle" fill="gold">388</text><rect x="410" y="247.22972972973" width="30" height="332.77027027027" fill="brown" /><text x="425" y="595" font-size="12" text-anchor="middle" fill="gold">2003</text><text x="425" y="242.22972972973" font-size="12" text-anchor="middle" fill="gold">394</text><rect x="460" y="294.52702702703" width="30" height="285.47297297297" fill="brown" /><text x="475" y="595" font-size="12" text-anchor="middle" fill="gold">2004</text><text x="475" y="289.52702702703" font-size="12" text-anchor="middle" fill="gold">338</text><rect x="510" y="257.36486486486" width="30" height="322.63513513514" fill="brown" /><text x="525" y="595" font-size="12" text-anchor="middle" fill="gold">2005</text><text x="525" y="252.36486486486" font-size="12" text-anchor="middle" fill="gold">382</text><rect x="560" y="191.48648648649" width="30" height="388.51351351351" fill="brown" /><text x="575" y="595" font-size="12" text-anchor="middle" fill="gold">2006</text><text x="575" y="186.48648648649" font-size="12" text-anchor="middle" fill="gold">460</text><rect x="610" y="156.01351351351" width="30" height="423.98648648649" fill="brown" /><text x="625" y="595" font-size="12" text-anchor="middle" fill="gold">2007</text><text x="625" y="151.01351351351" font-size="12" text-anchor="middle" fill="gold">502</text><rect x="660" y="130.67567567568" width="30" height="449.32432432432" fill="brown" /><text x="675" y="595" font-size="12" text-anchor="middle" fill="gold">2008</text><text x="675" y="125.67567567568" font-size="12" text-anchor="middle" fill="gold">532</text><rect x="710" y="162.77027027027" width="30" height="417.22972972973" fill="brown" /><text x="725" y="595" font-size="12" text-anchor="middle" fill="gold">2009</text><text x="725" y="157.77027027027" font-size="12" text-anchor="middle" fill="gold">494</text><rect x="760" y="174.59459459459" width="30" height="405.40540540541" fill="brown" /><text x="775" y="595" font-size="12" text-anchor="middle" fill="gold">2010</text><text x="775" y="169.59459459459" font-size="12" text-anchor="middle" fill="gold">480</text><rect x="810" y="201.62162162162" width="30" height="378.37837837838" fill="brown" /><text x="825" y="595" font-size="12" text-anchor="middle" fill="gold">2011</text><text x="825" y="196.62162162162" font-size="12" text-anchor="middle" fill="gold">448</text><rect x="860" y="123.91891891892" width="30" height="456.08108108108" fill="brown" /><text x="875" y="595" font-size="12" text-anchor="middle" fill="gold">2012</text><text x="875" y="118.91891891892" font-size="12" text-anchor="middle" fill="gold">540</text><rect x="910" y="123.91891891892" width="30" height="456.08108108108" fill="brown" /><text x="925" y="595" font-size="12" text-anchor="middle" fill="gold">2013</text><text x="925" y="118.91891891892" font-size="12" text-anchor="middle" fill="gold">540</text><rect x="960" y="98.581081081081" width="30" height="481.41891891892" fill="brown" /><text x="975" y="595" font-size="12" text-anchor="middle" fill="gold">2014</text><text x="975" y="93.581081081081" font-size="12" text-anchor="middle" fill="gold">570</text><rect x="1010" y="113.78378378378" width="30" height="466.21621621622" fill="brown" /><text x="1025" y="595" font-size="12" text-anchor="middle" fill="gold">2015</text><text x="1025" y="108.78378378378" font-size="12" text-anchor="middle" fill="gold">552</text><rect x="1060" y="90.135135135135" width="30" height="489.86486486486" fill="brown" /><text x="1075" y="595" font-size="12" text-anchor="middle" fill="gold">2016</text><text x="1075" y="85.135135135135" font-size="12" text-anchor="middle" fill="gold">580</text><rect x="1110" y="80" width="30" height="500" fill="brown" /><text x="1125" y="595" font-size="12" text-anchor="middle" fill="gold">2017</text><text x="1125" y="75" font-size="12" text-anchor="middle" fill="gold">592</text><rect x="1160" y="95.202702702703" width="30" height="484.7972972973" fill="brown" /><text x="1175" y="595" font-size="12" text-anchor="middle" fill="gold">2018</text><text x="1175" y="90.202702702703" font-size="12" text-anchor="middle" fill="gold">574</text><rect x="1210" y="183.04054054054" width="30" height="396.95945945946" fill="brown" /><text x="1225" y="595" font-size="12" text-anchor="middle" fill="gold">2019</text><text x="1225" y="178.04054054054" font-size="12" text-anchor="middle" fill="gold">470</text><rect x="1260" y="453.31081081081" width="30" height="126.68918918919" fill="brown" /><text x="1275" y="595" font-size="12" text-anchor="middle" fill="gold">2020</text><text x="1275" y="448.31081081081" font-size="12" text-anchor="middle" fill="gold">150</text></svg>